<svg width="117" height="110" viewBox="0 0 117 110" fill="none" xmlns="http://www.w3.org/2000/svg">
<path d="M48.75 9.16666V18.3333M68.25 9.16666V18.3333M78 36.6667C79.2929 36.6667 80.5329 37.1495 81.4471 38.0091C82.3614 38.8686 82.875 40.0344 82.875 41.25V77.9167C82.875 82.779 80.8205 87.4421 77.1636 90.8803C73.5066 94.3184 68.5467 96.25 63.375 96.25H34.125C28.9533 96.25 23.9934 94.3184 20.3364 90.8803C16.6795 87.4421 14.625 82.779 14.625 77.9167V41.25C14.625 40.0344 15.1386 38.8686 16.0529 38.0091C16.9671 37.1495 18.2071 36.6667 19.5 36.6667H87.75C92.9217 36.6667 97.8816 38.5982 101.539 42.0364C105.196 45.4745 107.25 50.1377 107.25 55C107.25 59.8623 105.196 64.5255 101.539 67.9636C97.8816 71.4018 92.9217 73.3333 87.75 73.3333H82.875M29.25 9.16666V18.3333" stroke="black" stroke-opacity="0.9" stroke-width="2" stroke-linecap="round" stroke-linejoin="round"/>
</svg>
