<svg width="117" height="110" viewBox="0 0 117 110" fill="none" xmlns="http://www.w3.org/2000/svg">
<path d="M48.75 32.0834V82.0417M68.25 27.9584V77.9167M78 32.0834V13.75C78.0002 12.8437 78.2862 11.9577 78.8219 11.2042C79.3576 10.4506 80.1189 9.86332 81.0096 9.5165C81.9002 9.16968 82.8803 9.07891 83.8258 9.25568C84.7713 9.43245 85.6398 9.86881 86.3216 10.5096C87.6709 11.7962 89.3246 12.7646 91.1479 13.3358C92.9711 13.9069 94.9122 14.0645 96.8126 13.7959C97.5615 13.6956 98.325 13.7605 99.0426 13.9856C99.7601 14.2106 100.412 14.5896 100.947 15.0925C101.482 15.5954 101.885 16.2084 102.124 16.8831C102.364 17.5577 102.433 18.2755 102.326 18.9796C102.04 20.7663 102.208 22.5913 102.816 24.3054C103.423 26.0196 104.453 27.5744 105.822 28.8429C106.503 29.4839 106.967 30.3005 107.155 31.1895C107.343 32.0784 107.247 32.9998 106.878 33.8372C106.509 34.6746 105.884 35.3903 105.083 35.8939C104.281 36.3976 103.339 36.6665 102.375 36.6667H82.875M39 77.9167V96.25C38.9998 97.1564 38.7138 98.0423 38.1781 98.7959C37.6424 99.5494 36.8811 100.137 35.9904 100.484C35.0998 100.83 34.1197 100.921 33.1742 100.744C32.2287 100.568 31.3602 100.131 30.6784 99.4904C29.3291 98.2038 27.6754 97.2354 25.8521 96.6643C24.0289 96.0932 22.0878 95.9355 20.1874 96.2042C19.4385 96.3045 18.675 96.2395 17.9574 96.0144C17.2398 95.7894 16.5878 95.4104 16.0529 94.9075C15.518 94.4046 15.1149 93.7916 14.8756 93.117C14.6362 92.4423 14.5671 91.7245 14.6737 91.0204C14.9595 89.2337 14.7918 87.4088 14.1844 85.6946C13.5769 83.9804 12.5469 82.4256 11.1784 81.1571C10.4968 80.5161 10.0327 79.6995 9.84465 78.8106C9.65664 77.9216 9.75318 77.0002 10.1221 76.1629C10.491 75.3255 11.1156 74.6097 11.9171 74.1061C12.7186 73.6025 13.661 73.3335 14.625 73.3334H34.125M80.613 34.2146C78.3495 32.086 75.6621 30.3974 72.7044 29.2453C69.7467 28.0933 66.5765 27.5003 63.375 27.5003C60.1735 27.5003 57.0033 28.0933 54.0456 29.2453C51.0879 30.3974 48.4005 32.086 46.137 34.2146L36.387 43.3813C31.8174 47.6788 29.2503 53.5067 29.2503 59.5834C29.2503 65.66 31.8174 71.4879 36.387 75.7854C38.6505 77.9141 41.3379 79.6027 44.2956 80.7547C47.2533 81.9068 50.4235 82.4997 53.625 82.4997C56.8265 82.4997 59.9967 81.9068 62.9544 80.7547C65.9121 79.6027 68.5995 77.9141 70.863 75.7854L80.613 66.6188C85.1826 62.3213 87.7497 56.4934 87.7497 50.4167C87.7497 44.34 85.1826 38.5121 80.613 34.2146Z" stroke="black" stroke-opacity="0.9" stroke-width="2" stroke-linecap="round" stroke-linejoin="round"/>
</svg>
